<svg height="512" viewBox="0 0 176 176" width="512" xmlns="http://www.w3.org/2000/svg"><g id="Layer_2" data-name="Layer 2"><g id="_36.yelp" data-name="36.yelp"><rect id="background" fill="#c20000" height="176" rx="16.33" width="176"/><g id="icon" fill="#fff"><path d="m88.28 114c.18-4.28-5.8-6.4-8.38-3.08-5.56 6.72-16 18.92-16.61 20.43-1.59 4.58 5.87 7.5 10.6 9.27q7.71 2.9 11 2.34a3.83 3.83 0 0 0 3.07-2.44c.37-1.18.33-25.52.32-26.52z"/><path d="m85.81 35.94a3.73 3.73 0 0 0 -3-2.75c-4.72-1.19-22.73 3.81-26.08 7.45a3.92 3.92 0 0 0 -1.14 3.79l22.85 36.66c4.67 7.47 10.56 5.22 10.15-3.09-.3-5.49-2.49-40.21-2.77-42z"/><path d="m76.14 102.83c4.32-1.33 4-7.66.32-9.14-9.8-4-23.19-9.69-24.22-9.69-4-.24-4.79 5.5-5.19 9.61a50.7 50.7 0 0 0 -.05 10.21c.3 3.27 1 6.61 4.28 6.81 1.41 0 24.67-7.73 24.88-7.8z"/><path d="m127 88.23a4.07 4.07 0 0 0 1.59-3.84c-.49-4.69-8.39-16.54-12.34-18.46a3.7 3.7 0 0 0 -3.93.13c-1.48 1-14.85 20.37-15.64 21.17-2.6 3.52 1.12 8.58 5 7.55l-.06.14c1.58-.53 24.19-5.92 25.38-6.69z"/><path d="m103.22 104.43c-4-1.44-7.85 3.71-5.5 7.25.67 1.13 12.87 21.56 14 22.32a3.56 3.56 0 0 0 3.8.44c4.15-1.66 13.13-13.18 13.71-17.68a3.71 3.71 0 0 0 -1.31-3.73c-.9-.81-24.65-8.6-24.65-8.6z"/></g></g></g></svg>